<?xml version="1.0" encoding="utf-8"?>
<!DOCTYPE svg PUBLIC "-//W3C//DTD SVG 1.1//EN" "http://www.w3.org/Graphics/SVG/1.1/DTD/svg11.dtd">
<svg version="1.1" xmlns="http://www.w3.org/2000/svg" xmlns:xlink="http://www.w3.org/1999/xlink" x="0px" y="0px" viewBox="0 0 1000 1000" enable-background="new 0 0 1000 1000" xml:space="preserve">
<metadata> Svg Vector Icons : http://www.onlinewebfonts.com/icon </metadata>
<g><g><g><polygon points="520.4,215.5 520.4,514.3 733.2,639.7 753.9,604.5 561.3,490 561.3,215.5 "/><path d="M187.3,704.4h-46.5c74.4,145.3,225.6,244.8,400.1,244.8C788.9,949.2,990,748.1,990,500c0-248.1-201.1-449.2-449.2-449.2c-220.2,0-403.4,158.4-441.8,367.5H10l102.1,122.5l102.1-122.5h-73.5C178.5,232,343.3,91.7,540.8,91.7c225.5,0,408.3,182.8,408.3,408.3c0,225.5-182.8,408.3-408.3,408.3C389.8,908.3,257.9,826.3,187.3,704.4z"/></g></g><g></g><g></g><g></g><g></g><g></g><g></g><g></g><g></g><g></g><g></g><g></g><g></g><g></g><g></g><g></g></g>
</svg>